<mxfile host="app.diagrams.net" modified="2023-06-02T03:47:13.021Z" agent="Mozilla/5.0 (Macintosh; Intel Mac OS X 10_15_7) AppleWebKit/537.36 (KHTML, like Gecko) Chrome/114.0.0.0 Safari/537.36" version="21.3.2" etag="J3L2qq2BM-44PukpgJV0" type="github">
  <diagram name="Trang-1" id="emk9Gvn0N3QjtSRsGMgm">
    <mxGraphModel>
      <root>
        <mxCell id="0" />
        <mxCell id="1" parent="0" />
      </root>
    </mxGraphModel>
  </diagram>
</mxfile>
